<svg version="1.1" id="Layer_1" xmlns="http://www.w3.org/2000/svg" xmlns:xlink="http://www.w3.org/1999/xlink" x="0px" y="0px"
	 width="100%" viewBox="0 0 423 126" enable-background="new 0 0 423 126" xml:space="preserve">
<path fill="#020000" opacity="1.000000" stroke="none" 
	d="
M329.000000,127.000000 
	C219.333344,127.000000 110.166695,127.000000 1.000029,127.000000 
	C1.000020,85.000015 1.000020,43.000034 1.000010,1.000041 
	C141.999969,1.000027 282.999939,1.000027 423.999939,1.000014 
	C423.999939,42.999958 423.999939,84.999916 423.999969,126.999939 
	C392.500000,127.000000 361.000000,127.000000 329.000000,127.000000 
M255.500000,116.954628 
	C265.576324,116.954628 275.652618,116.954628 285.638245,116.954628 
	C285.638245,79.693405 285.638245,43.268993 285.638245,6.649069 
	C267.338593,6.649069 249.312454,6.649069 230.616058,6.649069 
	C230.616058,20.015804 230.616058,32.993443 230.616058,46.782444 
	C211.906631,32.224953 194.021286,18.308678 175.426910,3.840702 
	C175.426910,42.235767 175.426910,79.306694 175.426910,116.954613 
	C201.967285,116.954613 228.233643,116.954613 255.500000,116.954628 
M8.743390,6.251880 
	C6.983236,6.347555 5.223082,6.443230 3.447255,6.539757 
	C3.447255,43.545113 3.447255,79.963707 3.447255,116.638351 
	C21.245037,116.638351 38.780113,116.638351 56.880699,116.638351 
	C56.880699,109.587868 56.880699,102.837746 56.880699,95.996284 
	C68.454933,95.523323 78.294006,91.918007 86.502998,84.456055 
	C100.337440,71.880577 104.995438,52.908081 98.644417,35.630424 
	C92.273064,18.297455 75.836723,6.654208 56.659267,6.343336 
	C41.006409,6.089600 25.346533,6.269009 8.743390,6.251880 
M368.044647,31.577936 
	C371.971802,24.713898 375.898956,17.849859 379.796539,11.037546 
	C358.504272,-2.956096 327.734894,1.480369 308.712433,20.818872 
	C289.506042,40.344376 286.932373,72.104431 302.718903,94.781677 
	C318.784485,117.859810 348.596283,126.261383 374.509735,115.013748 
	C395.720734,105.807198 412.422424,79.634087 408.263245,61.159904 
	C389.618256,61.159904 370.802704,61.159904 351.054382,61.159904 
	C356.954285,50.882095 362.314362,41.544662 368.044647,31.577936 
M165.686005,60.500160 
	C165.691177,44.017349 165.598663,27.533480 165.776978,11.052541 
	C165.816681,7.382095 164.813934,6.118582 161.015488,6.173703 
	C147.199448,6.374190 133.378723,6.252096 119.559761,6.251689 
	C115.939087,6.251582 112.318405,6.251673 108.542778,6.251673 
	C108.542778,43.454071 108.542778,80.095940 108.542778,116.643486 
	C127.716095,116.643486 146.459534,116.643486 165.685989,116.643486 
	C165.685989,98.054390 165.685989,79.777283 165.686005,60.500160 
M416.758423,106.296555 
	C412.768555,105.495598 408.712402,105.615562 406.802460,109.662949 
	C405.672363,112.057770 405.323578,115.490540 406.125061,117.971451 
	C407.341278,121.736084 411.031311,124.002411 414.842712,122.703400 
	C417.563354,121.776154 420.633667,119.202774 421.664062,116.614105 
	C423.213654,112.721069 421.762085,108.766792 416.758423,106.296555 
z"/>
<path fill="#FC3D66" opacity="1.000000" stroke="none" 
	d="
M255.000000,116.954620 
	C228.233643,116.954613 201.967285,116.954613 175.426910,116.954613 
	C175.426910,79.306694 175.426910,42.235767 175.426910,3.840702 
	C194.021286,18.308678 211.906631,32.224953 230.616058,46.782444 
	C230.616058,32.993443 230.616058,20.015804 230.616058,6.649069 
	C249.312454,6.649069 267.338593,6.649069 285.638245,6.649069 
	C285.638245,43.268993 285.638245,79.693405 285.638245,116.954628 
	C275.652618,116.954628 265.576324,116.954628 255.000000,116.954620 
z"/>
<path fill="#FB3C66" opacity="1.000000" stroke="none" 
	d="
M9.216579,6.254125 
	C25.346533,6.269009 41.006409,6.089600 56.659267,6.343336 
	C75.836723,6.654208 92.273064,18.297455 98.644417,35.630424 
	C104.995438,52.908081 100.337440,71.880577 86.502998,84.456055 
	C78.294006,91.918007 68.454933,95.523323 56.880699,95.996284 
	C56.880699,102.837746 56.880699,109.587868 56.880699,116.638351 
	C38.780113,116.638351 21.245037,116.638351 3.447255,116.638351 
	C3.447255,79.963707 3.447255,43.545113 3.447255,6.539757 
	C5.223082,6.443230 6.983236,6.347555 9.216579,6.254125 
z"/>
<path fill="#FB3C65" opacity="1.000000" stroke="none" 
	d="
M367.859528,31.892582 
	C362.314362,41.544662 356.954285,50.882095 351.054382,61.159904 
	C370.802704,61.159904 389.618256,61.159904 408.263245,61.159904 
	C412.422424,79.634087 395.720734,105.807198 374.509735,115.013748 
	C348.596283,126.261383 318.784485,117.859810 302.718903,94.781677 
	C286.932373,72.104431 289.506042,40.344376 308.712433,20.818872 
	C327.734894,1.480369 358.504272,-2.956096 379.796539,11.037546 
	C375.898956,17.849859 371.971802,24.713898 367.859528,31.892582 
z"/>
<path fill="#FA3D66" opacity="1.000000" stroke="none" 
	d="
M165.686005,61.000164 
	C165.685989,79.777283 165.685989,98.054390 165.685989,116.643486 
	C146.459534,116.643486 127.716095,116.643486 108.542778,116.643486 
	C108.542778,80.095940 108.542778,43.454071 108.542778,6.251673 
	C112.318405,6.251673 115.939087,6.251582 119.559761,6.251689 
	C133.378723,6.252096 147.199448,6.374190 161.015488,6.173703 
	C164.813934,6.118582 165.816681,7.382095 165.776978,11.052541 
	C165.598663,27.533480 165.691177,44.017349 165.686005,61.000164 
z"/>
<path fill="#ED3F66" opacity="1.000000" stroke="none" 
	d="
M417.121460,106.468979 
	C421.762085,108.766792 423.213654,112.721069 421.664062,116.614105 
	C420.633667,119.202774 417.563354,121.776154 414.842712,122.703400 
	C411.031311,124.002411 407.341278,121.736084 406.125061,117.971451 
	C405.323578,115.490540 405.672363,112.057770 406.802460,109.662949 
	C408.712402,105.615562 412.768555,105.495598 417.121460,106.468979 
z"/>
</svg>